<svg width="17" height="17" viewBox="0 0 17 17" fill="none" xmlns="http://www.w3.org/2000/svg">
<path d="M16.75 17H0.75V0H16.75V17Z" stroke="#E5E7EB"/>
<g clip-path="url(#clip0_666_8699)">
<path d="M9.75 1C9.75 0.446875 9.30313 0 8.75 0C8.19688 0 7.75 0.446875 7.75 1V8.58438L5.45625 6.29063C5.06563 5.9 4.43125 5.9 4.04063 6.29063C3.65 6.68125 3.65 7.31563 4.04063 7.70625L8.04063 11.7063C8.43125 12.0969 9.06563 12.0969 9.45625 11.7063L13.4563 7.70625C13.8469 7.31563 13.8469 6.68125 13.4563 6.29063C13.0656 5.9 12.4312 5.9 12.0406 6.29063L9.75 8.58438V1ZM2.75 11C1.64688 11 0.75 11.8969 0.75 13V14C0.75 15.1031 1.64688 16 2.75 16H14.75C15.8531 16 16.75 15.1031 16.75 14V13C16.75 11.8969 15.8531 11 14.75 11H11.5781L10.1625 12.4156C9.38125 13.1969 8.11562 13.1969 7.33437 12.4156L5.92188 11H2.75ZM14.25 12.75C14.4489 12.75 14.6397 12.829 14.7803 12.9697C14.921 13.1103 15 13.3011 15 13.5C15 13.6989 14.921 13.8897 14.7803 14.0303C14.6397 14.171 14.4489 14.25 14.25 14.25C14.0511 14.25 13.8603 14.171 13.7197 14.0303C13.579 13.8897 13.5 13.6989 13.5 13.5C13.5 13.3011 13.579 13.1103 13.7197 12.9697C13.8603 12.829 14.0511 12.75 14.25 12.75Z" fill="#374151"/>
</g>
<defs>
<clipPath id="clip0_666_8699">
<path d="M0.75 0H16.75V16H0.75V0Z" fill="white"/>
</clipPath>
</defs>
</svg>
