<svg width="16" height="28" viewBox="0 0 16 28" fill="none" xmlns="http://www.w3.org/2000/svg">
<path d="M15.5 28H0.5V0H15.5V28Z" stroke="#E5E7EB"/>
<path d="M15.5 23.5H0.5V3.5H15.5V23.5Z" stroke="#E5E7EB"/>
<path d="M13.8828 9.38281C14.3711 8.89453 14.3711 8.10156 13.8828 7.61328C13.3945 7.125 12.6016 7.125 12.1133 7.61328L8 11.7305L3.88281 7.61719C3.39453 7.12891 2.60156 7.12891 2.11328 7.61719C1.625 8.10547 1.625 8.89844 2.11328 9.38672L6.23047 13.5L2.11719 17.6172C1.62891 18.1055 1.62891 18.8984 2.11719 19.3867C2.60547 19.875 3.39844 19.875 3.88672 19.3867L8 15.2695L12.1172 19.3828C12.6055 19.8711 13.3984 19.8711 13.8867 19.3828C14.375 18.8945 14.375 18.1016 13.8867 17.6133L9.76953 13.5L13.8828 9.38281Z" fill="#EF4444"/>
</svg>
