<svg width="15" height="14" viewBox="0 0 15 14" fill="none" xmlns="http://www.w3.org/2000/svg">
<g opacity="0.4">
<path d="M6.44446 0.310547C8.12836 0.310547 9.50208 1.66044 9.50208 3.32227V6.57129H5.36145C5.0647 6.57129 4.8302 6.80208 4.8302 7.09375C4.83034 7.37852 5.06479 7.61621 5.36145 7.61621H9.50208V6.57129H12.3107L11.2247 5.49316C11.0215 5.28981 11.0217 4.95741 11.2247 4.75391C11.4282 4.54363 11.7615 4.54358 11.965 4.74707L13.9454 6.7207C14.047 6.82241 14.1007 6.95141 14.1007 7.09375C14.1007 7.22931 14.0471 7.36503 13.9454 7.45996L11.965 9.43359C11.8632 9.53534 11.7267 9.58984 11.5978 9.58984C11.4623 9.58972 11.3264 9.53522 11.2247 9.43359C11.0216 9.23014 11.0215 8.89774 11.2247 8.69434L12.3107 7.61621H9.50208V10.8584C9.50187 12.5201 8.12837 13.876 6.43079 13.876H3.07043C1.37977 13.876 0.00621461 12.5269 0.00598145 10.8652V3.3291C0.00598145 1.6605 1.38646 0.310547 3.07727 0.310547H6.44446Z" fill="#030229"/>
</g>
</svg>
