<svg width="20" height="28" viewBox="0 0 20 28" fill="none" xmlns="http://www.w3.org/2000/svg">
<path d="M20 28H0V0H20V28Z" stroke="#E5E7EB"/>
<g clip-path="url(#clip0_344_9249)">
<path d="M10 3.5C12.6522 3.5 15.1957 4.55357 17.0711 6.42893C18.9464 8.3043 20 10.8478 20 13.5C20 16.1522 18.9464 18.6957 17.0711 20.5711C15.1957 22.4464 12.6522 23.5 10 23.5C7.34784 23.5 4.8043 22.4464 2.92893 20.5711C1.05357 18.6957 0 16.1522 0 13.5C0 10.8478 1.05357 8.3043 2.92893 6.42893C4.8043 4.55357 7.34784 3.5 10 3.5ZM9.0625 8.1875V13.5C9.0625 13.8125 9.21875 14.1055 9.48047 14.2812L13.2305 16.7812C13.6602 17.0703 14.2422 16.9531 14.5312 16.5195C14.8203 16.0859 14.7031 15.5078 14.2695 15.2188L10.9375 13V8.1875C10.9375 7.66797 10.5195 7.25 10 7.25C9.48047 7.25 9.0625 7.66797 9.0625 8.1875Z" fill="#2463EA"/>
</g>
<defs>
<clipPath id="clip0_344_9249">
<path d="M0 3.5H20V23.5H0V3.5Z" fill="white"/>
</clipPath>
</defs>
</svg>
