<svg width="166" height="44" viewBox="0 0 166 44" fill="none" xmlns="http://www.w3.org/2000/svg">
<path d="M41.876 24.2803C40.7394 34.8056 31.8274 43 21 43C9.40202 43 0 33.598 0 22C0 21.959 0.00074138 21.9179 0.000976562 21.877L11.2021 27.3535C11.2568 29.0452 12.6447 30.4002 14.3496 30.4004C16.0893 30.4004 17.5 28.9897 17.5 27.25C17.5 27.1482 17.4938 27.0476 17.4844 26.9482L26.5996 19.4287C27.177 20.1429 28.0599 20.5996 29.0498 20.5996C30.191 20.5996 31.1867 19.9907 31.7393 19.082L41.876 24.2803ZM21 1C32.598 1 42 10.402 42 22C42 22.0319 41.9982 22.0638 41.998 22.0957L32.1748 17.0586C31.982 15.5037 30.6569 14.2998 29.0498 14.2998C27.3228 14.2999 25.9207 15.6899 25.9004 17.4121L16.6191 25.0693C16.046 24.4731 15.242 24.0996 14.3496 24.0996C13.2955 24.0997 12.3647 24.6198 11.793 25.415L0.124023 19.71C1.26504 9.18927 10.1759 1 21 1Z" fill="#605BFF"/>
<path d="M41.876 24.2803C40.7394 34.8056 31.8274 43 21 43C9.40202 43 0 33.598 0 22C0 21.959 0.00074138 21.9179 0.000976562 21.877L11.2021 27.3535C11.2568 29.0452 12.6447 30.4002 14.3496 30.4004C16.0893 30.4004 17.5 28.9897 17.5 27.25C17.5 27.1482 17.4938 27.0476 17.4844 26.9482L26.5996 19.4287C27.177 20.1429 28.0599 20.5996 29.0498 20.5996C30.191 20.5996 31.1867 19.9907 31.7393 19.082L41.876 24.2803ZM21 1C32.598 1 42 10.402 42 22C42 22.0319 41.9982 22.0638 41.998 22.0957L32.1748 17.0586C31.982 15.5037 30.6569 14.2998 29.0498 14.2998C27.3228 14.2999 25.9207 15.6899 25.9004 17.4121L16.6191 25.0693C16.046 24.4731 15.242 24.0996 14.3496 24.0996C13.2955 24.0997 12.3647 24.6198 11.793 25.415L0.124023 19.71C1.26504 9.18927 10.1759 1 21 1Z" fill="#605BFF"/>
<path d="M59.847 19.209C58.403 19.209 57.168 18.924 56.142 18.354C55.116 17.784 54.3243 16.986 53.767 15.96C53.2223 14.9213 52.95 13.699 52.95 12.293C52.95 11.2417 53.102 10.298 53.406 9.462C53.7227 8.61333 54.1787 7.89133 54.774 7.296C55.3693 6.688 56.0913 6.21933 56.94 5.89C57.8013 5.56067 58.7703 5.396 59.847 5.396C60.4803 5.396 61.12 5.47833 61.766 5.643C62.4247 5.795 62.9947 6.01667 63.476 6.308C63.7927 6.48533 64.008 6.707 64.122 6.973C64.236 7.239 64.2677 7.505 64.217 7.771C64.179 8.037 64.0713 8.265 63.894 8.455C63.7293 8.645 63.5203 8.76533 63.267 8.816C63.0137 8.86667 62.7287 8.80967 62.412 8.645C62.032 8.417 61.633 8.25233 61.215 8.151C60.797 8.04967 60.3727 7.999 59.942 7.999C59.0933 7.999 58.3777 8.17 57.795 8.512C57.225 8.84133 56.7943 9.32267 56.503 9.956C56.2117 10.5893 56.066 11.3683 56.066 12.293C56.066 13.205 56.2117 13.984 56.503 14.63C56.7943 15.276 57.225 15.77 57.795 16.112C58.3777 16.4413 59.0933 16.606 59.942 16.606C60.3473 16.606 60.759 16.5553 61.177 16.454C61.6077 16.3527 62.0193 16.1943 62.412 15.979C62.7413 15.8143 63.0327 15.7573 63.286 15.808C63.552 15.846 63.7673 15.96 63.932 16.15C64.1093 16.3273 64.217 16.5427 64.255 16.796C64.3057 17.0493 64.2803 17.3027 64.179 17.556C64.0777 17.8093 63.8877 18.0247 63.609 18.202C63.1403 18.5187 62.564 18.7657 61.88 18.943C61.196 19.1203 60.5183 19.209 59.847 19.209ZM69.4533 19.209C68.3259 19.209 67.4836 18.8987 66.9263 18.278C66.3689 17.6447 66.0903 16.7073 66.0903 15.466V6.897C66.0903 6.41567 66.2106 6.05467 66.4513 5.814C66.7046 5.56067 67.0656 5.434 67.5343 5.434C67.9903 5.434 68.3386 5.56067 68.5793 5.814C68.8326 6.05467 68.9593 6.41567 68.9593 6.897V15.352C68.9593 15.8713 69.0669 16.2577 69.2823 16.511C69.5103 16.7517 69.8079 16.872 70.1753 16.872C70.2766 16.872 70.3716 16.8657 70.4603 16.853C70.5489 16.8403 70.6439 16.834 70.7453 16.834C70.9479 16.8087 71.0873 16.872 71.1633 17.024C71.2519 17.1633 71.2963 17.4483 71.2963 17.879C71.2963 18.259 71.2203 18.5503 71.0683 18.753C70.9163 18.943 70.6819 19.0697 70.3653 19.133C70.2386 19.1457 70.0929 19.1583 69.9283 19.171C69.7636 19.1963 69.6053 19.209 69.4533 19.209ZM77.1697 19.209C76.0677 19.209 75.1177 19.0127 74.3197 18.62C73.5343 18.2147 72.9263 17.651 72.4957 16.929C72.0777 16.1943 71.8687 15.333 71.8687 14.345C71.8687 13.3823 72.0713 12.54 72.4767 11.818C72.882 11.0833 73.4457 10.5133 74.1677 10.108C74.9023 9.69 75.732 9.481 76.6567 9.481C77.328 9.481 77.936 9.595 78.4807 9.823C79.0253 10.0383 79.494 10.355 79.8867 10.773C80.2793 11.1783 80.577 11.6787 80.7797 12.274C80.9823 12.8567 81.0837 13.509 81.0837 14.231C81.0837 14.4717 81.0077 14.6553 80.8557 14.782C80.7037 14.896 80.482 14.953 80.1907 14.953H74.2247V13.471H79.0127L78.7087 13.737C78.7087 13.2177 78.6327 12.787 78.4807 12.445C78.3287 12.0903 78.107 11.8243 77.8157 11.647C77.537 11.4697 77.1887 11.381 76.7707 11.381C76.302 11.381 75.903 11.4887 75.5737 11.704C75.2443 11.9193 74.991 12.2297 74.8137 12.635C74.6363 13.0403 74.5477 13.528 74.5477 14.098V14.25C74.5477 15.2127 74.7693 15.922 75.2127 16.378C75.6687 16.834 76.34 17.062 77.2267 17.062C77.5307 17.062 77.879 17.024 78.2717 16.948C78.6643 16.872 79.0317 16.7517 79.3737 16.587C79.665 16.4477 79.9247 16.4033 80.1527 16.454C80.3807 16.492 80.558 16.5933 80.6847 16.758C80.8113 16.9227 80.881 17.1127 80.8937 17.328C80.919 17.5433 80.8747 17.7587 80.7607 17.974C80.6467 18.1767 80.4567 18.3477 80.1907 18.487C79.76 18.7277 79.2723 18.905 78.7277 19.019C78.1957 19.1457 77.6763 19.209 77.1697 19.209ZM85.9064 19.209C85.2224 19.209 84.6081 19.076 84.0634 18.81C83.5187 18.544 83.0944 18.183 82.7904 17.727C82.4864 17.271 82.3344 16.758 82.3344 16.188C82.3344 15.504 82.5117 14.9657 82.8664 14.573C83.2211 14.1677 83.7974 13.8827 84.5954 13.718C85.3934 13.5407 86.4511 13.452 87.7684 13.452H88.7754V14.934H87.7874C87.1414 14.934 86.6157 14.972 86.2104 15.048C85.8177 15.1113 85.5327 15.2253 85.3554 15.39C85.1907 15.5547 85.1084 15.7827 85.1084 16.074C85.1084 16.4287 85.2287 16.72 85.4694 16.948C85.7227 17.176 86.0837 17.29 86.5524 17.29C86.9197 17.29 87.2427 17.2077 87.5214 17.043C87.8127 16.8657 88.0407 16.6313 88.2054 16.34C88.3701 16.036 88.4524 15.694 88.4524 15.314V13.129C88.4524 12.5717 88.3257 12.179 88.0724 11.951C87.8191 11.7103 87.3884 11.59 86.7804 11.59C86.4384 11.59 86.0647 11.6343 85.6594 11.723C85.2667 11.799 84.8297 11.932 84.3484 12.122C84.0697 12.2487 83.8227 12.2803 83.6074 12.217C83.3921 12.141 83.2274 12.0143 83.1134 11.837C82.9994 11.647 82.9424 11.4443 82.9424 11.229C82.9424 11.001 83.0057 10.7857 83.1324 10.583C83.2591 10.3677 83.4681 10.2093 83.7594 10.108C84.3547 9.86733 84.9121 9.70267 85.4314 9.614C85.9634 9.52533 86.4511 9.481 86.8944 9.481C87.8697 9.481 88.6677 9.62667 89.2884 9.918C89.9217 10.1967 90.3967 10.6337 90.7134 11.229C91.0301 11.8117 91.1884 12.5653 91.1884 13.49V17.708C91.1884 18.1767 91.0744 18.5377 90.8464 18.791C90.6184 19.0443 90.2891 19.171 89.8584 19.171C89.4277 19.171 89.0921 19.0443 88.8514 18.791C88.6234 18.5377 88.5094 18.1767 88.5094 17.708V17.005L88.6424 17.119C88.5664 17.5497 88.4017 17.9233 88.1484 18.24C87.9077 18.544 87.5974 18.7847 87.2174 18.962C86.8374 19.1267 86.4004 19.209 85.9064 19.209ZM94.7726 19.171C94.3039 19.171 93.9429 19.0443 93.6896 18.791C93.4489 18.5377 93.3286 18.1767 93.3286 17.708V10.963C93.3286 10.4943 93.4489 10.1397 93.6896 9.899C93.9429 9.64567 94.2912 9.519 94.7346 9.519C95.1906 9.519 95.5389 9.64567 95.7796 9.899C96.0202 10.1397 96.1406 10.4943 96.1406 10.963V12.046L95.9316 11.419C96.2229 10.7983 96.6536 10.3233 97.2236 9.994C97.8062 9.652 98.4649 9.481 99.1996 9.481C99.9469 9.481 100.561 9.62667 101.043 9.918C101.524 10.1967 101.885 10.6273 102.126 11.21C102.366 11.78 102.487 12.5083 102.487 13.395V17.708C102.487 18.1767 102.36 18.5377 102.107 18.791C101.866 19.0443 101.511 19.171 101.043 19.171C100.587 19.171 100.232 19.0443 99.9786 18.791C99.7379 18.5377 99.6176 18.1767 99.6176 17.708V13.528C99.6176 12.882 99.4972 12.4197 99.2566 12.141C99.0286 11.8497 98.6739 11.704 98.1926 11.704C97.5846 11.704 97.0969 11.894 96.7296 12.274C96.3749 12.654 96.1976 13.1607 96.1976 13.794V17.708C96.1976 18.6833 95.7226 19.171 94.7726 19.171ZM110.613 19.209C109.663 19.209 108.821 19.0887 108.086 18.848C107.364 18.5947 106.756 18.2273 106.262 17.746C105.768 17.2647 105.395 16.663 105.141 15.941C104.901 15.2063 104.78 14.3577 104.78 13.395V6.935C104.78 6.441 104.907 6.06733 105.16 5.814C105.414 5.56067 105.781 5.434 106.262 5.434C106.731 5.434 107.092 5.56067 107.345 5.814C107.599 6.06733 107.725 6.441 107.725 6.935V13.414C107.725 14.5033 107.972 15.3267 108.466 15.884C108.96 16.4287 109.676 16.701 110.613 16.701C111.551 16.701 112.26 16.4287 112.741 15.884C113.235 15.3267 113.482 14.5033 113.482 13.414V6.935C113.482 6.441 113.609 6.06733 113.862 5.814C114.116 5.56067 114.477 5.434 114.945 5.434C115.414 5.434 115.769 5.56067 116.009 5.814C116.263 6.06733 116.389 6.441 116.389 6.935V13.395C116.389 14.6743 116.168 15.751 115.724 16.625C115.294 17.4863 114.648 18.1323 113.786 18.563C112.938 18.9937 111.88 19.209 110.613 19.209ZM120.192 22.591C119.724 22.591 119.363 22.4643 119.109 22.211C118.869 21.9703 118.748 21.6093 118.748 21.128V10.963C118.748 10.4943 118.869 10.1397 119.109 9.899C119.363 9.64567 119.711 9.519 120.154 9.519C120.623 9.519 120.978 9.64567 121.218 9.899C121.459 10.1397 121.579 10.4943 121.579 10.963V12.255L121.37 11.514C121.56 10.906 121.94 10.4183 122.51 10.051C123.093 9.671 123.758 9.481 124.505 9.481C125.316 9.481 126.025 9.67733 126.633 10.07C127.254 10.4627 127.735 11.02 128.077 11.742C128.419 12.464 128.59 13.3253 128.59 14.326C128.59 15.3267 128.419 16.1943 128.077 16.929C127.735 17.6637 127.26 18.2273 126.652 18.62C126.044 19.0127 125.329 19.209 124.505 19.209C123.771 19.209 123.118 19.0317 122.548 18.677C121.978 18.3097 121.592 17.8347 121.389 17.252H121.617V21.128C121.617 21.6093 121.491 21.9703 121.237 22.211C120.997 22.4643 120.648 22.591 120.192 22.591ZM123.65 17.062C124.056 17.062 124.41 16.9607 124.714 16.758C125.031 16.5553 125.272 16.2577 125.436 15.865C125.614 15.4597 125.702 14.9467 125.702 14.326C125.702 13.4013 125.512 12.7237 125.132 12.293C124.752 11.8497 124.258 11.628 123.65 11.628C123.245 11.628 122.884 11.723 122.567 11.913C122.263 12.103 122.023 12.4007 121.845 12.806C121.668 13.1987 121.579 13.7053 121.579 14.326C121.579 15.2507 121.769 15.941 122.149 16.397C122.529 16.8403 123.03 17.062 123.65 17.062ZM137.381 19.171C136.899 19.171 136.532 19.038 136.279 18.772C136.025 18.506 135.899 18.1323 135.899 17.651V7.106C135.899 6.612 136.025 6.23833 136.279 5.985C136.545 5.73167 136.918 5.605 137.4 5.605H142.017C143.511 5.605 144.664 5.985 145.475 6.745C146.285 7.49233 146.691 8.53733 146.691 9.88C146.691 11.2227 146.285 12.274 145.475 13.034C144.664 13.794 143.511 14.174 142.017 14.174H138.844V17.651C138.844 18.1323 138.717 18.506 138.464 18.772C138.223 19.038 137.862 19.171 137.381 19.171ZM138.844 11.894H141.523C142.283 11.894 142.859 11.723 143.252 11.381C143.657 11.039 143.86 10.5387 143.86 9.88C143.86 9.22133 143.657 8.72733 143.252 8.398C142.859 8.06867 142.283 7.904 141.523 7.904H138.844V11.894ZM149.565 19.171C149.084 19.171 148.717 19.0443 148.463 18.791C148.21 18.5377 148.083 18.1767 148.083 17.708V10.963C148.083 10.4943 148.204 10.1397 148.444 9.899C148.698 9.64567 149.046 9.519 149.489 9.519C149.945 9.519 150.294 9.64567 150.534 9.899C150.775 10.1397 150.895 10.4943 150.895 10.963V11.951H150.705C150.857 11.191 151.193 10.602 151.712 10.184C152.232 9.766 152.903 9.53167 153.726 9.481C154.043 9.45567 154.284 9.538 154.448 9.728C154.626 9.90533 154.721 10.203 154.733 10.621C154.759 11.0137 154.676 11.324 154.486 11.552C154.309 11.78 154.005 11.9193 153.574 11.97L153.137 12.008C152.415 12.0713 151.877 12.2803 151.522 12.635C151.18 12.9897 151.009 13.5027 151.009 14.174V17.708C151.009 18.1767 150.883 18.5377 150.629 18.791C150.389 19.0443 150.034 19.171 149.565 19.171ZM160.231 19.209C159.23 19.209 158.356 19.0127 157.609 18.62C156.874 18.2273 156.304 17.6637 155.899 16.929C155.493 16.1943 155.291 15.3267 155.291 14.326C155.291 13.5787 155.405 12.9073 155.633 12.312C155.861 11.7167 156.19 11.21 156.621 10.792C157.064 10.3613 157.59 10.0383 158.198 9.823C158.806 9.595 159.483 9.481 160.231 9.481C161.231 9.481 162.099 9.67733 162.834 10.07C163.581 10.4627 164.157 11.02 164.563 11.742C164.981 12.464 165.19 13.3253 165.19 14.326C165.19 15.086 165.069 15.7637 164.829 16.359C164.601 16.9543 164.271 17.4673 163.841 17.898C163.41 18.3287 162.884 18.658 162.264 18.886C161.656 19.1013 160.978 19.209 160.231 19.209ZM160.231 17.062C160.649 17.062 161.01 16.9607 161.314 16.758C161.618 16.5553 161.858 16.2577 162.036 15.865C162.213 15.4597 162.302 14.9467 162.302 14.326C162.302 13.4013 162.112 12.7237 161.732 12.293C161.352 11.8497 160.851 11.628 160.231 11.628C159.825 11.628 159.464 11.723 159.148 11.913C158.844 12.103 158.603 12.4007 158.426 12.806C158.261 13.1987 158.179 13.7053 158.179 14.326C158.179 15.2507 158.369 15.941 158.749 16.397C159.129 16.8403 159.623 17.062 160.231 17.062Z" fill="url(#paint0_linear_171_2363)"/>
<path d="M53.742 39.091C53.5253 39.091 53.3563 39.0303 53.235 38.909C53.1223 38.7877 53.066 38.6187 53.066 38.402V30.524C53.066 30.2987 53.1267 30.1297 53.248 30.017C53.3693 29.8957 53.5383 29.835 53.755 29.835H56.862C57.85 29.835 58.6127 30.082 59.15 30.576C59.6873 31.0613 59.956 31.746 59.956 32.63C59.956 33.5227 59.6873 34.216 59.15 34.71C58.6127 35.1953 57.85 35.438 56.862 35.438H54.418V38.402C54.418 38.6187 54.3617 38.7877 54.249 38.909C54.1363 39.0303 53.9673 39.091 53.742 39.091ZM54.418 34.359H56.667C57.317 34.359 57.8067 34.216 58.136 33.93C58.474 33.6353 58.643 33.202 58.643 32.63C58.643 32.0667 58.474 31.642 58.136 31.356C57.8067 31.0613 57.317 30.914 56.667 30.914H54.418V34.359ZM62.0958 39C61.8792 39 61.7102 38.9393 61.5888 38.818C61.4675 38.6967 61.4068 38.5277 61.4068 38.311V30.472C61.4068 30.2467 61.4632 30.0777 61.5758 29.965C61.6972 29.8437 61.8662 29.783 62.0828 29.783C62.2995 29.783 62.4642 29.8437 62.5768 29.965C62.6982 30.0777 62.7588 30.2467 62.7588 30.472V37.843H66.7888C66.9795 37.843 67.1268 37.895 67.2308 37.999C67.3348 38.0943 67.3868 38.233 67.3868 38.415C67.3868 38.597 67.3348 38.74 67.2308 38.844C67.1268 38.948 66.9795 39 66.7888 39H62.0958ZM68.2865 39.091C68.1131 39.091 67.9745 39.052 67.8705 38.974C67.7665 38.896 67.7058 38.792 67.6885 38.662C67.6711 38.532 67.6971 38.3847 67.7665 38.22L71.2895 30.316C71.3761 30.108 71.4845 29.9607 71.6145 29.874C71.7531 29.7873 71.9048 29.744 72.0695 29.744C72.2255 29.744 72.3685 29.7873 72.4985 29.874C72.6371 29.9607 72.7498 30.108 72.8365 30.316L76.3595 38.22C76.4375 38.3847 76.4678 38.5363 76.4505 38.675C76.4331 38.805 76.3768 38.909 76.2815 38.987C76.1861 39.0563 76.0518 39.091 75.8785 39.091C75.6878 39.091 75.5361 39.0433 75.4235 38.948C75.3108 38.8527 75.2111 38.7053 75.1245 38.506L74.2145 36.4L74.8255 36.764H69.2875L69.8855 36.4L68.9885 38.506C68.9018 38.714 68.8065 38.8657 68.7025 38.961C68.5985 39.0477 68.4598 39.091 68.2865 39.091ZM72.0435 31.33L70.0805 35.984L69.7555 35.672H74.3445L74.0455 35.984L72.0695 31.33H72.0435ZM79.8198 39.091C79.6031 39.091 79.4341 39.0303 79.3128 38.909C79.2001 38.7877 79.1438 38.6187 79.1438 38.402V30.966H76.3878C76.2058 30.966 76.0628 30.9183 75.9588 30.823C75.8548 30.719 75.8028 30.576 75.8028 30.394C75.8028 30.212 75.8548 30.0733 75.9588 29.978C76.0628 29.8827 76.2058 29.835 76.3878 29.835H83.2388C83.4295 29.835 83.5768 29.8827 83.6808 29.978C83.7848 30.0733 83.8368 30.212 83.8368 30.394C83.8368 30.576 83.7848 30.719 83.6808 30.823C83.5768 30.9183 83.4295 30.966 83.2388 30.966H80.4828V38.402C80.4828 38.6187 80.4265 38.7877 80.3138 38.909C80.2098 39.0303 80.0451 39.091 79.8198 39.091ZM85.5701 39.091C85.3447 39.091 85.1671 39.0303 85.0371 38.909C84.9157 38.7877 84.8551 38.61 84.8551 38.376V30.563C84.8551 30.329 84.9157 30.1513 85.0371 30.03C85.1671 29.9 85.3491 29.835 85.5831 29.835H90.2111C90.4017 29.835 90.5404 29.8827 90.6271 29.978C90.7224 30.0647 90.7701 30.1947 90.7701 30.368C90.7701 30.55 90.7224 30.6887 90.6271 30.784C90.5404 30.8793 90.4017 30.927 90.2111 30.927H86.2071V33.852H89.9511C90.1244 33.852 90.2587 33.8997 90.3541 33.995C90.4581 34.0817 90.5101 34.2117 90.5101 34.385C90.5101 34.567 90.4581 34.7057 90.3541 34.801C90.2587 34.8963 90.1244 34.944 89.9511 34.944H86.2071V38.376C86.2071 38.8527 85.9947 39.091 85.5701 39.091ZM92.7293 39.091C92.5126 39.091 92.3436 39.0303 92.2223 38.909C92.1096 38.7877 92.0533 38.6187 92.0533 38.402V30.524C92.0533 30.2987 92.114 30.1297 92.2353 30.017C92.3566 29.8957 92.5256 29.835 92.7423 29.835H95.8493C96.8373 29.835 97.6 30.069 98.1373 30.537C98.6746 31.005 98.9433 31.668 98.9433 32.526C98.9433 33.0807 98.822 33.5573 98.5793 33.956C98.3366 34.3547 97.9813 34.658 97.5133 34.866C97.054 35.074 96.4993 35.178 95.8493 35.178L95.9663 34.996H96.3043C96.651 34.996 96.95 35.0827 97.2013 35.256C97.4613 35.4293 97.6953 35.7067 97.9033 36.088L99.0213 38.168C99.108 38.324 99.147 38.4757 99.1383 38.623C99.1383 38.7617 99.0863 38.8743 98.9823 38.961C98.887 39.0477 98.7483 39.091 98.5663 39.091C98.3756 39.091 98.2196 39.052 98.0983 38.974C97.9856 38.8873 97.8816 38.7617 97.7863 38.597L96.4213 36.075C96.2393 35.737 96.0313 35.5117 95.7973 35.399C95.5633 35.2777 95.2556 35.217 94.8743 35.217H93.4053V38.402C93.4053 38.6187 93.349 38.7877 93.2363 38.909C93.1236 39.0303 92.9546 39.091 92.7293 39.091ZM93.4053 34.203H95.6283C96.287 34.203 96.7853 34.0643 97.1233 33.787C97.4613 33.5097 97.6303 33.098 97.6303 32.552C97.6303 32.0147 97.4613 31.6073 97.1233 31.33C96.7853 31.0527 96.287 30.914 95.6283 30.914H93.4053V34.203ZM104.766 39.117C103.899 39.117 103.141 38.9263 102.491 38.545C101.849 38.155 101.351 37.609 100.996 36.907C100.649 36.1963 100.476 35.3643 100.476 34.411C100.476 33.6917 100.575 33.046 100.775 32.474C100.974 31.8933 101.26 31.3993 101.633 30.992C102.005 30.576 102.456 30.2597 102.985 30.043C103.513 29.8263 104.107 29.718 104.766 29.718C105.641 29.718 106.399 29.9087 107.041 30.29C107.682 30.6713 108.176 31.213 108.523 31.915C108.878 32.617 109.056 33.4447 109.056 34.398C109.056 35.1173 108.956 35.7673 108.757 36.348C108.557 36.9287 108.267 37.427 107.886 37.843C107.513 38.259 107.062 38.5753 106.534 38.792C106.005 39.0087 105.416 39.117 104.766 39.117ZM104.766 37.947C105.372 37.947 105.888 37.8083 106.313 37.531C106.746 37.2537 107.075 36.8507 107.301 36.322C107.535 35.7933 107.652 35.1563 107.652 34.411C107.652 33.293 107.4 32.4263 106.898 31.811C106.395 31.1957 105.684 30.888 104.766 30.888C104.159 30.888 103.639 31.0267 103.206 31.304C102.781 31.5727 102.452 31.9713 102.218 32.5C101.992 33.0287 101.88 33.6657 101.88 34.411C101.88 35.5203 102.131 36.387 102.634 37.011C103.145 37.635 103.856 37.947 104.766 37.947ZM111.518 39.091C111.318 39.091 111.162 39.0347 111.05 38.922C110.946 38.8093 110.894 38.6533 110.894 38.454V30.381C110.894 30.173 110.95 30.017 111.063 29.913C111.175 29.8003 111.327 29.744 111.518 29.744C111.7 29.744 111.838 29.7787 111.934 29.848C112.038 29.9087 112.133 30.0213 112.22 30.186L115.626 36.543H115.223L118.616 30.186C118.702 30.0213 118.793 29.9087 118.889 29.848C118.984 29.7787 119.123 29.744 119.305 29.744C119.495 29.744 119.643 29.8003 119.747 29.913C119.851 30.017 119.903 30.173 119.903 30.381V38.454C119.903 38.6533 119.851 38.8093 119.747 38.922C119.651 39.0347 119.504 39.091 119.305 39.091C119.105 39.091 118.954 39.0347 118.85 38.922C118.746 38.8093 118.694 38.6533 118.694 38.454V31.746H118.98L115.964 37.323C115.894 37.453 115.821 37.5483 115.743 37.609C115.665 37.6697 115.556 37.7 115.418 37.7C115.279 37.7 115.166 37.6697 115.08 37.609C114.993 37.5397 114.915 37.4443 114.846 37.323L111.804 31.733H112.116V38.454C112.116 38.6533 112.064 38.8093 111.96 38.922C111.864 39.0347 111.717 39.091 111.518 39.091Z" fill="#8E8E8E"/>
<defs>
<linearGradient id="paint0_linear_171_2363" x1="52" y1="13" x2="166" y2="13" gradientUnits="userSpaceOnUse">
<stop stop-color="#0A078F"/>
<stop offset="0.5" stop-color="#8241ED"/>
<stop offset="0.975962" stop-color="#2463EA"/>
</linearGradient>
</defs>
</svg>
