<svg width="66" height="66" viewBox="0 0 66 66" fill="none" xmlns="http://www.w3.org/2000/svg">
<g clip-path="url(#clip0_2028_185)">
<rect width="66" height="66" rx="33" fill="white"/>
<path d="M65.8057 36.584C64.0193 53.1235 50.0143 66 33 66C14.7746 66 0 51.2254 0 33C0 32.9358 0.00158727 32.8717 0.00195312 32.8076L17.6035 41.4121C17.6891 44.0708 19.8704 46.2001 22.5498 46.2002C25.2836 46.2002 27.5 43.9838 27.5 41.25C27.5 41.0899 27.4914 40.9316 27.4766 40.7754L41.7988 28.959C42.7063 30.0816 44.0944 30.7998 45.6504 30.7998C47.4436 30.7997 49.0135 29.8458 49.8818 28.418L65.8057 36.584ZM33 0C51.2254 0 66 14.7746 66 33C66 33.0502 65.9983 33.1003 65.998 33.1504L50.5596 25.2344C50.2564 22.7914 48.1755 20.9006 45.6504 20.9004C42.9363 20.9004 40.7328 23.0844 40.7012 25.791L26.1182 37.8213C25.2175 36.8842 23.9522 36.2998 22.5498 36.2998C20.8925 36.2999 19.4257 37.1147 18.5273 38.3652L0.195312 29.4033C1.98747 12.8699 15.99 0 33 0Z" fill="#605BFF"/>
<path d="M65.8057 36.584C64.0193 53.1235 50.0143 66 33 66C14.7746 66 0 51.2254 0 33C0 32.9358 0.00158727 32.8717 0.00195312 32.8076L17.6035 41.4121C17.6891 44.0708 19.8704 46.2001 22.5498 46.2002C25.2836 46.2002 27.5 43.9838 27.5 41.25C27.5 41.0899 27.4914 40.9316 27.4766 40.7754L41.7988 28.959C42.7063 30.0816 44.0944 30.7998 45.6504 30.7998C47.4436 30.7997 49.0135 29.8458 49.8818 28.418L65.8057 36.584ZM33 0C51.2254 0 66 14.7746 66 33C66 33.0502 65.9983 33.1003 65.998 33.1504L50.5596 25.2344C50.2564 22.7914 48.1755 20.9006 45.6504 20.9004C42.9363 20.9004 40.7328 23.0844 40.7012 25.791L26.1182 37.8213C25.2175 36.8842 23.9522 36.2998 22.5498 36.2998C20.8925 36.2999 19.4257 37.1147 18.5273 38.3652L0.195312 29.4033C1.98747 12.8699 15.99 0 33 0Z" fill="#605BFF"/>
</g>
<defs>
<clipPath id="clip0_2028_185">
<rect width="66" height="66" rx="33" fill="white"/>
</clipPath>
</defs>
</svg>
