<svg width="23" height="24" viewBox="0 0 23 24" fill="none" xmlns="http://www.w3.org/2000/svg">
<path d="M12.1934 2.32156C12.0968 2.14932 11.9561 2.00591 11.7858 1.90609C11.6154 1.80628 11.4215 1.75366 11.2241 1.75366C11.0266 1.75366 10.8327 1.80628 10.6623 1.90609C10.492 2.00591 10.3513 2.14932 10.2547 2.32156C10.0277 2.73472 9.8094 3.15318 9.59979 3.57693C8.93941 4.91738 8.37795 6.30433 7.91991 7.72669C7.76214 8.2159 7.2945 8.55528 6.75875 8.57003C5.13474 8.61273 3.51601 8.77395 1.91548 9.05243C1.03695 9.2068 0.706649 10.2079 1.33093 10.8186C1.47319 10.9586 1.61696 11.0967 1.76225 11.2329C2.84856 12.2588 3.99715 13.2167 5.20146 14.1011C5.61802 14.4065 5.78942 14.9297 5.63051 15.4087C5.02518 17.2283 4.59196 19.1006 4.33655 21.0011C4.22304 21.8581 5.14017 22.4631 5.93697 22.0545C7.51702 21.2443 9.02792 20.3059 10.4545 19.2486C10.6779 19.0855 10.9474 18.9976 11.2241 18.9976C11.5007 18.9976 11.7702 19.0855 11.9936 19.2486C13.4199 20.3063 14.9308 21.2448 16.5111 22.0545C17.3068 22.4631 18.2251 21.8581 18.1116 21.0011C18.0677 20.6795 18.0196 20.3598 17.9674 20.042C17.7052 18.47 17.3208 16.9209 16.8176 15.4087C16.6587 14.9297 16.8289 14.4065 17.2466 14.1011C18.6129 13.1 19.9064 12.0031 21.1172 10.8186C21.7415 10.2079 21.4123 9.2068 20.5326 9.05243C18.9323 8.77233 17.3135 8.61109 15.6894 8.57003C15.4326 8.56595 15.1833 8.48277 14.9755 8.33186C14.7677 8.18094 14.6115 7.96961 14.5282 7.72669C13.9251 5.85461 13.1433 4.0438 12.1934 2.32156Z" stroke="#2463EA" stroke-width="1.70258" stroke-linecap="round" stroke-linejoin="round"/>
</svg>
