<svg width="30" height="30" viewBox="0 0 30 30" fill="none" xmlns="http://www.w3.org/2000/svg">
<path d="M7.00033 28.3334V4.33341C7.00033 3.62617 7.28128 2.94789 7.78137 2.4478C8.28147 1.9477 8.95975 1.66675 9.66699 1.66675H20.3337C21.0409 1.66675 21.7192 1.9477 22.2193 2.4478C22.7194 2.94789 23.0003 3.62617 23.0003 4.33341V28.3334M7.00033 28.3334H23.0003M7.00033 28.3334H4.33366C3.62641 28.3334 2.94814 28.0525 2.44804 27.5524C1.94794 27.0523 1.66699 26.374 1.66699 25.6667V17.6667C1.66699 16.9595 1.94794 16.2812 2.44804 15.7811C2.94814 15.281 3.62641 15.0001 4.33366 15.0001H7.00033M23.0003 28.3334H25.667C26.3742 28.3334 27.0525 28.0525 27.5526 27.5524C28.0527 27.0523 28.3337 26.374 28.3337 25.6667V13.6667C28.3337 12.9595 28.0527 12.2812 27.5526 11.7811C27.0525 11.281 26.3742 11.0001 25.667 11.0001H23.0003M12.3337 7.00008H17.667M12.3337 12.3334H17.667M12.3337 17.6667H17.667M12.3337 23.0001H17.667" stroke="#2463EA" stroke-width="2" stroke-linecap="round" stroke-linejoin="round"/>
</svg>
