<svg width="20" height="21" viewBox="0 0 20 21" fill="none" xmlns="http://www.w3.org/2000/svg">
<path d="M15.8337 3.83268H14.167V2.99935C14.167 2.77834 14.0792 2.56637 13.9229 2.41009C13.7666 2.25381 13.5547 2.16602 13.3337 2.16602C13.1126 2.16602 12.9007 2.25381 12.7444 2.41009C12.5881 2.56637 12.5003 2.77834 12.5003 2.99935V3.83268H7.50032V2.99935C7.50032 2.77834 7.41253 2.56637 7.25625 2.41009C7.09997 2.25381 6.88801 2.16602 6.66699 2.16602C6.44598 2.16602 6.23402 2.25381 6.07774 2.41009C5.92146 2.56637 5.83366 2.77834 5.83366 2.99935V3.83268H4.16699C3.50395 3.83268 2.86807 4.09607 2.39923 4.56491C1.93038 5.03376 1.66699 5.66964 1.66699 6.33268V16.3327C1.66699 16.9957 1.93038 17.6316 2.39923 18.1004C2.86807 18.5693 3.50395 18.8327 4.16699 18.8327H15.8337C16.4967 18.8327 17.1326 18.5693 17.6014 18.1004C18.0703 17.6316 18.3337 16.9957 18.3337 16.3327V6.33268C18.3337 5.66964 18.0703 5.03376 17.6014 4.56491C17.1326 4.09607 16.4967 3.83268 15.8337 3.83268ZM16.667 16.3327C16.667 16.5537 16.5792 16.7657 16.4229 16.9219C16.2666 17.0782 16.0547 17.166 15.8337 17.166H4.16699C3.94598 17.166 3.73402 17.0782 3.57774 16.9219C3.42146 16.7657 3.33366 16.5537 3.33366 16.3327V10.4993H16.667V16.3327ZM16.667 8.83268H3.33366V6.33268C3.33366 6.11167 3.42146 5.89971 3.57774 5.74343C3.73402 5.58715 3.94598 5.49935 4.16699 5.49935H5.83366V6.33268C5.83366 6.5537 5.92146 6.76566 6.07774 6.92194C6.23402 7.07822 6.44598 7.16601 6.66699 7.16601C6.88801 7.16601 7.09997 7.07822 7.25625 6.92194C7.41253 6.76566 7.50032 6.5537 7.50032 6.33268V5.49935H12.5003V6.33268C12.5003 6.5537 12.5881 6.76566 12.7444 6.92194C12.9007 7.07822 13.1126 7.16601 13.3337 7.16601C13.5547 7.16601 13.7666 7.07822 13.9229 6.92194C14.0792 6.76566 14.167 6.5537 14.167 6.33268V5.49935H15.8337C16.0547 5.49935 16.2666 5.58715 16.4229 5.74343C16.5792 5.89971 16.667 6.11167 16.667 6.33268V8.83268Z" fill="#9A9AA9"/>
</svg>
