<svg width="49" height="49" viewBox="0 0 49 49" fill="none" xmlns="http://www.w3.org/2000/svg">
<path d="M40.3984 0.5C44.8167 0.5 48.3984 4.08172 48.3984 8.5V40.5C48.3984 44.9183 44.8167 48.5 40.3984 48.5H8.39844C3.98016 48.5 0.398438 44.9183 0.398438 40.5V8.5C0.398438 4.08172 3.98016 0.5 8.39844 0.5H40.3984Z" fill="#009608" fill-opacity="0.1"/>
<path d="M40.3984 0.5C44.8167 0.5 48.3984 4.08172 48.3984 8.5V40.5C48.3984 44.9183 44.8167 48.5 40.3984 48.5H8.39844C3.98016 48.5 0.398438 44.9183 0.398438 40.5V8.5C0.398438 4.08172 3.98016 0.5 8.39844 0.5H40.3984Z" stroke="#E5E7EB"/>
<path d="M31.8984 38.5H16.8984V10.5H31.8984V38.5Z" stroke="#E5E7EB"/>
<g clip-path="url(#clip0_644_4925)">
<path d="M19.3984 14C18.0195 14 16.8984 15.1211 16.8984 16.5V31.5C16.8984 32.8789 18.0195 34 19.3984 34H29.3984C30.7773 34 31.8984 32.8789 31.8984 31.5V20.25H26.8984C26.207 20.25 25.6484 19.6914 25.6484 19V14H19.3984ZM26.8984 14V19H31.8984L26.8984 14ZM20.0234 16.5H22.5234C22.8672 16.5 23.1484 16.7812 23.1484 17.125C23.1484 17.4688 22.8672 17.75 22.5234 17.75H20.0234C19.6797 17.75 19.3984 17.4688 19.3984 17.125C19.3984 16.7812 19.6797 16.5 20.0234 16.5ZM20.0234 19H22.5234C22.8672 19 23.1484 19.2812 23.1484 19.625C23.1484 19.9688 22.8672 20.25 22.5234 20.25H20.0234C19.6797 20.25 19.3984 19.9688 19.3984 19.625C19.3984 19.2812 19.6797 19 20.0234 19ZM20.6484 22.75H28.1484C28.8398 22.75 29.3984 23.3086 29.3984 24V26.5C29.3984 27.1914 28.8398 27.75 28.1484 27.75H20.6484C19.957 27.75 19.3984 27.1914 19.3984 26.5V24C19.3984 23.3086 19.957 22.75 20.6484 22.75ZM20.6484 24V26.5H28.1484V24H20.6484ZM26.2734 30.25H28.7734C29.1172 30.25 29.3984 30.5312 29.3984 30.875C29.3984 31.2188 29.1172 31.5 28.7734 31.5H26.2734C25.9297 31.5 25.6484 31.2188 25.6484 30.875C25.6484 30.5312 25.9297 30.25 26.2734 30.25Z" fill="#009608"/>
</g>
<defs>
<clipPath id="clip0_644_4925">
<path d="M16.8984 14H31.8984V34H16.8984V14Z" fill="white"/>
</clipPath>
</defs>
</svg>
