<svg width="25" height="24" viewBox="0 0 25 24" fill="none" xmlns="http://www.w3.org/2000/svg">
<path d="M12.4991 3.27832H5.71552C5.20148 3.27832 4.7085 3.48252 4.34502 3.846C3.98154 4.20948 3.77734 4.70246 3.77734 5.21649V18.7837C3.77734 19.2977 3.98154 19.7907 4.34502 20.1542C4.7085 20.5177 5.20148 20.7219 5.71552 20.7219H19.2827C19.7968 20.7219 20.2897 20.5177 20.6532 20.1542C21.0167 19.7907 21.2209 19.2977 21.2209 18.7837V12.0001" stroke="#151515" stroke-width="1.66129" stroke-linecap="round" stroke-linejoin="round"/>
<path d="M18.6773 2.91461C19.0628 2.52909 19.5857 2.3125 20.1309 2.3125C20.6761 2.3125 21.199 2.52909 21.5845 2.91461C21.9701 3.30014 22.1867 3.82303 22.1867 4.36824C22.1867 4.91346 21.9701 5.43634 21.5845 5.82187L12.8502 14.5572C12.6201 14.7871 12.3358 14.9554 12.0235 15.0466L9.23936 15.8606C9.15597 15.885 9.06757 15.8864 8.98343 15.8649C8.89928 15.8433 8.82248 15.7995 8.76106 15.7381C8.69964 15.6767 8.65586 15.5999 8.6343 15.5157C8.61274 15.4316 8.6142 15.3432 8.63852 15.2598L9.45255 12.4756C9.54416 12.1636 9.71279 11.8797 9.94291 11.65L18.6773 2.91461Z" stroke="#151515" stroke-width="1.66129" stroke-linecap="round" stroke-linejoin="round"/>
</svg>
