<svg width="24" height="24" viewBox="0 0 24 24" fill="none" xmlns="http://www.w3.org/2000/svg">
<path fill-rule="evenodd" clip-rule="evenodd" d="M11.6282 8.36621C10.6644 8.36621 9.74006 8.74909 9.05854 9.43061C8.37701 10.1121 7.99414 11.0365 7.99414 12.0003C7.99414 12.9641 8.37701 13.8884 9.05854 14.57C9.74006 15.2515 10.6644 15.6344 11.6282 15.6344C12.592 15.6344 13.5164 15.2515 14.1979 14.57C14.8794 13.8884 15.2623 12.9641 15.2623 12.0003C15.2623 11.0365 14.8794 10.1121 14.1979 9.43061C13.5164 8.74909 12.592 8.36621 11.6282 8.36621ZM9.44777 12.0003C9.44777 11.422 9.67749 10.8674 10.0864 10.4585C10.4953 10.0496 11.0499 9.81984 11.6282 9.81984C12.2065 9.81984 12.7611 10.0496 13.17 10.4585C13.5789 10.8674 13.8087 11.422 13.8087 12.0003C13.8087 12.5786 13.5789 13.1332 13.17 13.5421C12.7611 13.951 12.2065 14.1807 11.6282 14.1807C11.0499 14.1807 10.4953 13.951 10.0864 13.5421C9.67749 13.1332 9.44777 12.5786 9.44777 12.0003Z" fill="#151515"/>
<path fill-rule="evenodd" clip-rule="evenodd" d="M11.6286 3.52051C7.25416 3.52051 4.30717 6.14092 2.59673 8.36303L2.56669 8.40276C2.17905 8.90572 1.8234 9.36797 1.5821 9.91454C1.32335 10.5008 1.21094 11.1395 1.21094 12C1.21094 12.8606 1.32335 13.4992 1.5821 14.0855C1.82437 14.632 2.18002 15.0953 2.56669 15.5973L2.5977 15.637C4.30717 17.8591 7.25416 20.4795 11.6286 20.4795C16.0031 20.4795 18.9501 17.8591 20.6605 15.637L20.6905 15.5973C21.0782 15.0953 21.4338 14.632 21.6751 14.0855C21.9339 13.4992 22.0463 12.8606 22.0463 12C22.0463 11.1395 21.9339 10.5008 21.6751 9.91454C21.4329 9.36797 21.0772 8.90572 20.6905 8.40276L20.6595 8.36303C18.9501 6.14092 16.0031 3.52051 11.6286 3.52051ZM3.74994 9.24974C5.32761 7.19819 7.89763 4.97414 11.6286 4.97414C15.3596 4.97414 17.9286 7.19819 19.5073 9.24974C19.9337 9.80212 20.1818 10.1316 20.3455 10.5018C20.4987 10.8487 20.5927 11.2722 20.5927 12C20.5927 12.7278 20.4987 13.1513 20.3455 13.4982C20.1818 13.8684 19.9327 14.1979 19.5083 14.7503C17.9277 16.8018 15.3596 19.0259 11.6286 19.0259C7.89763 19.0259 5.32858 16.8018 3.74994 14.7503C3.32354 14.1979 3.07546 13.8684 2.91168 13.4982C2.75857 13.1513 2.66457 12.7278 2.66457 12C2.66457 11.2722 2.75857 10.8487 2.91168 10.5018C3.07546 10.1316 3.32548 9.80212 3.74994 9.24974Z" fill="#151515"/>
</svg>
