<svg width="49" height="49" viewBox="0 0 49 49" fill="none" xmlns="http://www.w3.org/2000/svg">
<path d="M40.5996 0.5C45.0179 0.5 48.5996 4.08172 48.5996 8.5V40.5C48.5996 44.9183 45.0179 48.5 40.5996 48.5H8.59961C4.18133 48.5 0.599609 44.9183 0.599609 40.5V8.5C0.59961 4.08172 4.18133 0.5 8.59961 0.5H40.5996Z" fill="#FFEDD5"/>
<path d="M40.5996 0.5C45.0179 0.5 48.5996 4.08172 48.5996 8.5V40.5C48.5996 44.9183 45.0179 48.5 40.5996 48.5H8.59961C4.18133 48.5 0.599609 44.9183 0.599609 40.5V8.5C0.59961 4.08172 4.18133 0.5 8.59961 0.5H40.5996Z" stroke="#E5E7EB"/>
<path d="M30.8496 38.5H18.3496V10.5H30.8496V38.5Z" stroke="#E5E7EB"/>
<g clip-path="url(#clip0_644_4935)">
<path d="M20.2246 16.5C19.1895 16.5 18.3496 17.3398 18.3496 18.375V29.625C18.3496 30.6602 19.1895 31.5 20.2246 31.5H21.4746C22.5098 31.5 23.3496 30.6602 23.3496 29.625V18.375C23.3496 17.3398 22.5098 16.5 21.4746 16.5H20.2246ZM27.7246 16.5C26.6895 16.5 25.8496 17.3398 25.8496 18.375V29.625C25.8496 30.6602 26.6895 31.5 27.7246 31.5H28.9746C30.0098 31.5 30.8496 30.6602 30.8496 29.625V18.375C30.8496 17.3398 30.0098 16.5 28.9746 16.5H27.7246Z" fill="#F59E0B"/>
</g>
<defs>
<clipPath id="clip0_644_4935">
<path d="M18.3496 14H30.8496V34H18.3496V14Z" fill="white"/>
</clipPath>
</defs>
</svg>
