<svg width="16" height="17" viewBox="0 0 16 17" fill="none" xmlns="http://www.w3.org/2000/svg">
<path d="M8 15C10.5 11.5 12.5 8.5 12.5 6.5C12.5 5.30653 12.0259 4.16193 11.182 3.31802C10.3381 2.47411 9.19347 2 8 2C6.80653 2 5.66193 2.47411 4.81802 3.31802C3.97411 4.16193 3.5 5.30653 3.5 6.5C3.5 8.5 5.5 11.5 8 15Z" stroke="black"/>
<path d="M10 6.5C10 7.03043 9.78929 7.53914 9.41421 7.91421C9.03914 8.28929 8.53043 8.5 8 8.5C7.46957 8.5 6.96086 8.28929 6.58579 7.91421C6.21071 7.53914 6 7.03043 6 6.5C6 5.96957 6.21071 5.46086 6.58579 5.08579C6.96086 4.71071 7.46957 4.5 8 4.5C8.53043 4.5 9.03914 4.71071 9.41421 5.08579C9.78929 5.46086 10 5.96957 10 6.5Z" stroke="black"/>
</svg>
