<svg width="49" height="49" viewBox="0 0 49 49" fill="none" xmlns="http://www.w3.org/2000/svg">
<path d="M40.8008 0.5C45.2191 0.5 48.8008 4.08172 48.8008 8.5V40.5C48.8008 44.9183 45.2191 48.5 40.8008 48.5H8.80078C4.3825 48.5 0.800781 44.9183 0.800781 40.5V8.5C0.800782 4.08172 4.3825 0.5 8.80078 0.5H40.8008Z" fill="#FEE2E2"/>
<path d="M40.8008 0.5C45.2191 0.5 48.8008 4.08172 48.8008 8.5V40.5C48.8008 44.9183 45.2191 48.5 40.8008 48.5H8.80078C4.3825 48.5 0.800781 44.9183 0.800781 40.5V8.5C0.800782 4.08172 4.3825 0.5 8.80078 0.5H40.8008Z" stroke="#E5E7EB"/>
<path d="M31.0508 38.5H18.5508V10.5H31.0508V38.5Z" stroke="#E5E7EB"/>
<g clip-path="url(#clip0_644_4945)">
<path d="M20.4258 16.5C19.3906 16.5 18.5508 17.3398 18.5508 18.375V29.625C18.5508 30.6602 19.3906 31.5 20.4258 31.5H21.6758C22.7109 31.5 23.5508 30.6602 23.5508 29.625V18.375C23.5508 17.3398 22.7109 16.5 21.6758 16.5H20.4258ZM27.9258 16.5C26.8906 16.5 26.0508 17.3398 26.0508 18.375V29.625C26.0508 30.6602 26.8906 31.5 27.9258 31.5H29.1758C30.2109 31.5 31.0508 30.6602 31.0508 29.625V18.375C31.0508 17.3398 30.2109 16.5 29.1758 16.5H27.9258Z" fill="#EF4444"/>
</g>
<defs>
<clipPath id="clip0_644_4945">
<path d="M18.5508 14H31.0508V34H18.5508V14Z" fill="white"/>
</clipPath>
</defs>
</svg>
