<svg width="24" height="25" viewBox="0 0 24 25" fill="none" xmlns="http://www.w3.org/2000/svg">
<path d="M9 10.3711H6M19 14.3711H5" stroke="#151515" stroke-width="1.5" stroke-linecap="round"/>
<path d="M17 11.3711C17.5523 11.3711 18 10.9234 18 10.3711C18 9.81881 17.5523 9.37109 17 9.37109C16.4477 9.37109 16 9.81881 16 10.3711C16 10.9234 16.4477 11.3711 17 11.3711Z" fill="#151515"/>
<path d="M15 16.8711H9M13 19.3711H9M22 12.3711C22 15.1991 22 16.6141 21.121 17.4921C20.48 18.1341 19.554 18.3071 18 18.3541M6 18.3541C4.447 18.3071 3.52 18.1341 2.879 17.4921C2 16.6141 2 15.1991 2 12.3711C2 9.54309 2 8.12809 2.879 7.25009C3.757 6.37109 5.172 6.37109 8 6.37109H16C18.828 6.37109 20.243 6.37109 21.121 7.25009C21.421 7.55009 21.619 7.91209 21.749 8.37109" stroke="#151515" stroke-width="1.5" stroke-linecap="round"/>
<path d="M17.983 6.37109C17.936 4.81809 17.763 3.89109 17.121 3.25009C16.243 2.37109 14.828 2.37109 12 2.37109C9.172 2.37109 7.757 2.37109 6.879 3.25009C6.237 3.89109 6.064 4.81809 6.017 6.37109M18 15.3711V16.3711C18 19.1991 18 20.6141 17.121 21.4921C16.48 22.1341 15.554 22.3071 14 22.3541M6 15.3711V16.3711C6 19.1991 6 20.6141 6.879 21.4921C7.52 22.1341 8.447 22.3071 10 22.3541" stroke="#151515" stroke-width="1.5" stroke-linecap="round"/>
</svg>
