<svg width="20" height="14" viewBox="0 0 20 14" fill="none" xmlns="http://www.w3.org/2000/svg">
<path d="M8 6.00005H5.101L5.102 5.99105C5.23367 5.35202 5.48914 4.74494 5.854 4.20405C6.39829 3.40171 7.16203 2.77301 8.054 2.39305C8.35733 2.26438 8.67 2.16738 8.992 2.10205C9.65795 1.96764 10.344 1.96764 11.01 2.10205C11.9665 2.29937 12.8443 2.77251 13.535 3.46305L14.951 2.05105C14.3134 1.41199 13.5582 0.902292 12.727 0.550047C12.3031 0.371164 11.8627 0.234503 11.412 0.142047C10.4818 -0.0463723 9.52322 -0.0463723 8.593 0.142047C8.14195 0.234763 7.70115 0.37176 7.277 0.551046C6.02753 1.08115 4.95793 1.96114 4.197 3.08505C3.68539 3.84317 3.32731 4.69421 3.143 5.59005C3.115 5.72505 3.1 5.86305 3.08 6.00005H0L4 10L8 6.00005ZM12 8.00005H14.899L14.898 8.00805C14.6363 9.28964 13.8809 10.4168 12.795 11.146C12.2554 11.5132 11.6478 11.7689 11.008 11.898C10.3424 12.0323 9.65663 12.0323 8.991 11.898C8.35197 11.7664 7.7449 11.5109 7.204 11.146C6.93836 10.9669 6.69055 10.7626 6.464 10.536L5.05 11.95C5.68799 12.5889 6.44354 13.0982 7.275 13.45C7.699 13.63 8.142 13.767 8.59 13.858C9.5199 14.0463 10.4781 14.0463 11.408 13.858C13.2006 13.4861 14.7774 12.4295 15.803 10.913C16.314 10.1554 16.6717 9.30511 16.856 8.41005C16.883 8.27505 16.899 8.13705 16.919 8.00005H20L16 4.00005L12 8.00005Z" fill="#8E8E8E"/>
</svg>
