<svg width="24" height="24" viewBox="0 0 24 24" fill="none" xmlns="http://www.w3.org/2000/svg">
<path d="M9.75 3.4635V16.4985C9.75 16.5887 9.73374 16.6781 9.702 16.7625L14.25 19.0365V5.7135L9.75 3.4635ZM8.25 3.4035L3 5.7375V19.0965L8.2905 16.7445C8.26337 16.6653 8.24968 16.5822 8.25 16.4985V3.4035ZM8.661 1.5795C8.77092 1.52376 8.8929 1.49597 9.01612 1.49858C9.13935 1.5012 9.26003 1.53414 9.3675 1.5945L15.0195 4.4205L21.4455 1.5645C21.5597 1.51377 21.6847 1.49238 21.8093 1.50226C21.9339 1.51214 22.054 1.55299 22.1588 1.6211C22.2635 1.6892 22.3496 1.7824 22.4092 1.89224C22.4688 2.00207 22.5 2.12505 22.5 2.25V17.25C22.5 17.3951 22.4579 17.5371 22.3789 17.6588C22.2998 17.7805 22.1871 17.8766 22.0545 17.9355L15.3045 20.9355C15.2033 20.9805 15.0933 21.0024 14.9826 20.9998C14.8718 20.9972 14.763 20.9701 14.664 20.9205L8.9805 18.0795L2.556 20.9355C2.4418 20.9862 2.31674 21.0076 2.19218 20.9978C2.06761 20.9879 1.94749 20.947 1.84272 20.8789C1.73796 20.8108 1.65187 20.7176 1.59228 20.6078C1.53268 20.4979 1.50148 20.375 1.5015 20.25V5.25C1.50148 5.10489 1.54356 4.96289 1.62263 4.84122C1.70171 4.71954 1.81438 4.62342 1.947 4.5645L8.661 1.5795ZM15.75 5.7375V19.0965L21 16.7625V3.405L15.75 5.7375Z" fill="#9A9AA9"/>
</svg>
