<svg width="22" height="18" viewBox="0 0 22 18" fill="none" xmlns="http://www.w3.org/2000/svg">
<path fill-rule="evenodd" clip-rule="evenodd" d="M8.94436 0.25H13.0564C14.8944 0.25 16.3504 0.25 17.4894 0.403C18.6614 0.561 19.6104 0.893 20.3594 1.641C21.1074 2.39 21.4394 3.339 21.5974 4.511C21.6874 5.184 21.7244 5.967 21.7394 6.874C21.7518 6.95007 21.7531 7.02754 21.7434 7.104C21.7494 7.66933 21.7517 8.28267 21.7504 8.944V9.056C21.7504 10.894 21.7504 12.35 21.5974 13.489C21.4394 14.661 21.1074 15.61 20.3594 16.359C19.6104 17.107 18.6614 17.439 17.4894 17.597C16.3494 17.75 14.8944 17.75 13.0564 17.75H8.94436C7.10636 17.75 5.65036 17.75 4.51136 17.597C3.33936 17.439 2.39036 17.107 1.64136 16.359C0.893364 15.61 0.561364 14.661 0.403364 13.489C0.250364 12.349 0.250364 10.894 0.250364 9.056V8.944C0.24903 8.28267 0.251364 7.66933 0.257364 7.104C0.247279 7.02759 0.24829 6.95012 0.260364 6.874C0.276364 5.967 0.313364 5.184 0.403364 4.511C0.561364 3.339 0.893364 2.39 1.64136 1.641C2.39036 0.893 3.33936 0.561 4.51136 0.403C5.65136 0.25 7.10636 0.25 8.94436 0.25ZM1.75236 7.75C1.75103 8.138 1.75036 8.55467 1.75036 9C1.75036 10.907 1.75236 12.262 1.89036 13.29C2.02536 14.295 2.27936 14.875 2.70236 15.298C3.12536 15.721 3.70536 15.975 4.71136 16.11C5.73936 16.248 7.09336 16.25 9.00036 16.25H13.0004C14.9074 16.25 16.2624 16.248 17.2904 16.11C18.2954 15.975 18.8754 15.721 19.2984 15.298C19.7214 14.875 19.9754 14.295 20.1104 13.289C20.2484 12.261 20.2504 10.907 20.2504 9C20.2504 8.55467 20.2497 8.138 20.2484 7.75H1.75236ZM20.2244 6.25H1.77636C1.79636 5.663 1.83036 5.156 1.89036 4.71C2.02536 3.705 2.27936 3.125 2.70236 2.702C3.12536 2.279 3.70536 2.025 4.71136 1.89C5.73936 1.752 7.09336 1.75 9.00036 1.75H13.0004C14.9074 1.75 16.2624 1.752 17.2904 1.89C18.2954 2.025 18.8754 2.279 19.2984 2.702C19.7214 3.125 19.9754 3.705 20.1104 4.711C20.1704 5.156 20.2044 5.663 20.2244 6.25ZM4.25036 13C4.25036 12.8011 4.32938 12.6103 4.47003 12.4697C4.61069 12.329 4.80145 12.25 5.00036 12.25H9.00036C9.19928 12.25 9.39004 12.329 9.53069 12.4697C9.67135 12.6103 9.75036 12.8011 9.75036 13C9.75036 13.1989 9.67135 13.3897 9.53069 13.5303C9.39004 13.671 9.19928 13.75 9.00036 13.75H5.00036C4.80145 13.75 4.61069 13.671 4.47003 13.5303C4.32938 13.3897 4.25036 13.1989 4.25036 13ZM10.7504 13C10.7504 12.8011 10.8294 12.6103 10.97 12.4697C11.1107 12.329 11.3015 12.25 11.5004 12.25H13.0004C13.1993 12.25 13.39 12.329 13.5307 12.4697C13.6713 12.6103 13.7504 12.8011 13.7504 13C13.7504 13.1989 13.6713 13.3897 13.5307 13.5303C13.39 13.671 13.1993 13.75 13.0004 13.75H11.5004C11.3015 13.75 11.1107 13.671 10.97 13.5303C10.8294 13.3897 10.7504 13.1989 10.7504 13Z" fill="#9A9AA9"/>
</svg>
