<svg width="14" height="17" viewBox="0 0 14 17" fill="none" xmlns="http://www.w3.org/2000/svg">
<g clip-path="url(#clip0_358_3122)">
<path d="M10.7066 3.20664C11.0973 2.81602 11.0973 2.18164 10.7066 1.79102C10.316 1.40039 9.68164 1.40039 9.29102 1.79102L5.00039 6.08477L3.20664 4.29102C2.81602 3.90039 2.18164 3.90039 1.79102 4.29102C1.40039 4.68164 1.40039 5.31602 1.79102 5.70664L4.29102 8.20664C4.68164 8.59727 5.31602 8.59727 5.70664 8.20664L10.7066 3.20664ZM13.7066 7.20664C14.0973 6.81602 14.0973 6.18164 13.7066 5.79102C13.316 5.40039 12.6816 5.40039 12.291 5.79102L5.00039 13.0848L1.70664 9.79414C1.31602 9.40352 0.681641 9.40352 0.291016 9.79414C-0.0996094 10.1848 -0.0996094 10.8191 0.291016 11.2098L4.29102 15.2098C4.68164 15.6004 5.31602 15.6004 5.70664 15.2098L13.7066 7.20977V7.20664Z" fill="white"/>
</g>
<defs>
<clipPath id="clip0_358_3122">
<path d="M0 0.5H14V16.5H0V0.5Z" fill="white"/>
</clipPath>
</defs>
</svg>
