<svg width="49" height="49" viewBox="0 0 49 49" fill="none" xmlns="http://www.w3.org/2000/svg">
<path d="M40.1992 0.5C44.6175 0.5 48.1992 4.08172 48.1992 8.5V40.5C48.1992 44.9183 44.6175 48.5 40.1992 48.5H8.19922C3.78094 48.5 0.199219 44.9183 0.199219 40.5V8.5C0.199219 4.08172 3.78094 0.5 8.19922 0.5H40.1992Z" fill="#DCFCE7"/>
<path d="M40.1992 0.5C44.6175 0.5 48.1992 4.08172 48.1992 8.5V40.5C48.1992 44.9183 44.6175 48.5 40.1992 48.5H8.19922C3.78094 48.5 0.199219 44.9183 0.199219 40.5V8.5C0.199219 4.08172 3.78094 0.5 8.19922 0.5H40.1992Z" stroke="#E5E7EB"/>
<path d="M36.6992 38.5H11.6992V10.5H36.6992V38.5Z" stroke="#E5E7EB"/>
<g clip-path="url(#clip0_644_4915)">
<path d="M17.3242 14C18.153 14 18.9479 14.3292 19.5339 14.9153C20.12 15.5013 20.4492 16.2962 20.4492 17.125C20.4492 17.9538 20.12 18.7487 19.5339 19.3347C18.9479 19.9208 18.153 20.25 17.3242 20.25C16.4954 20.25 15.7006 19.9208 15.1145 19.3347C14.5285 18.7487 14.1992 17.9538 14.1992 17.125C14.1992 16.2962 14.5285 15.5013 15.1145 14.9153C15.7006 14.3292 16.4954 14 17.3242 14ZM31.6992 14C32.528 14 33.3229 14.3292 33.9089 14.9153C34.495 15.5013 34.8242 16.2962 34.8242 17.125C34.8242 17.9538 34.495 18.7487 33.9089 19.3347C33.3229 19.9208 32.528 20.25 31.6992 20.25C30.8704 20.25 30.0756 19.9208 29.4895 19.3347C28.9035 18.7487 28.5742 17.9538 28.5742 17.125C28.5742 16.2962 28.9035 15.5013 29.4895 14.9153C30.0756 14.3292 30.8704 14 31.6992 14ZM11.6992 25.668C11.6992 23.3672 13.5664 21.5 15.8672 21.5H17.5352C18.1562 21.5 18.7461 21.6367 19.2773 21.8789C19.2266 22.1602 19.2031 22.4531 19.2031 22.75C19.2031 24.2422 19.8594 25.582 20.8945 26.5C20.8867 26.5 20.8789 26.5 20.8672 26.5H12.5312C12.0742 26.5 11.6992 26.125 11.6992 25.668ZM27.5312 26.5C27.5234 26.5 27.5156 26.5 27.5039 26.5C28.543 25.582 29.1953 24.2422 29.1953 22.75C29.1953 22.4531 29.168 22.1641 29.1211 21.8789C29.6523 21.6328 30.2422 21.5 30.8633 21.5H32.5312C34.832 21.5 36.6992 23.3672 36.6992 25.668C36.6992 26.1289 36.3242 26.5 35.8672 26.5H27.5312ZM20.4492 22.75C20.4492 21.7554 20.8443 20.8016 21.5476 20.0983C22.2508 19.3951 23.2047 19 24.1992 19C25.1938 19 26.1476 19.3951 26.8509 20.0983C27.5541 20.8016 27.9492 21.7554 27.9492 22.75C27.9492 23.7446 27.5541 24.6984 26.8509 25.4017C26.1476 26.1049 25.1938 26.5 24.1992 26.5C23.2047 26.5 22.2508 26.1049 21.5476 25.4017C20.8443 24.6984 20.4492 23.7446 20.4492 22.75ZM16.6992 32.957C16.6992 30.082 19.0312 27.75 21.9062 27.75H26.4922C29.3672 27.75 31.6992 30.082 31.6992 32.957C31.6992 33.5312 31.2344 34 30.6562 34H17.7422C17.168 34 16.6992 33.5352 16.6992 32.957Z" fill="#10B981"/>
</g>
<defs>
<clipPath id="clip0_644_4915">
<path d="M11.6992 14H36.6992V34H11.6992V14Z" fill="white"/>
</clipPath>
</defs>
</svg>
