<svg width="12" height="18" viewBox="0 0 12 18" fill="none" xmlns="http://www.w3.org/2000/svg">
<path fill-rule="evenodd" clip-rule="evenodd" d="M8.16457 8.33092H6.88764V3.22318H7.52611C8.93657 3.22318 10.08 4.36659 10.08 5.77705C10.08 6.12966 10.3658 6.41552 10.7184 6.41552C11.0711 6.41552 11.3569 6.12966 11.3569 5.77705C11.3547 3.66227 9.64089 1.94844 7.52611 1.94624H6.88764V0.669309C6.88764 0.316693 6.60179 0.0308412 6.24917 0.0308412C5.89655 0.0308412 5.6107 0.316693 5.6107 0.669309V1.94624H4.97224C2.85654 1.94624 1.14143 3.66135 1.14143 5.77705C1.14143 7.89274 2.85654 9.60785 4.97224 9.60785H5.6107V14.7156H4.33377C2.92331 14.7156 1.7799 13.5722 1.7799 12.1617C1.7799 11.8091 1.49405 11.5233 1.14143 11.5233C0.788815 11.5233 0.502964 11.8091 0.502964 12.1617C0.505163 14.2765 2.21899 15.9903 4.33377 15.9925H5.6107V17.2695C5.6107 17.6221 5.89655 17.9079 6.24917 17.9079C6.60179 17.9079 6.88764 17.6221 6.88764 17.2695V15.9925H8.16457C10.2803 15.9925 11.9954 14.2774 11.9954 12.1617C11.9954 10.046 10.2803 8.33092 8.16457 8.33092ZM4.97224 8.33092C3.56177 8.33092 2.41837 7.18751 2.41837 5.77705C2.41837 4.36659 3.56177 3.22318 4.97224 3.22318H5.6107V8.33092H4.97224ZM8.16457 14.7156H6.88764V9.60785H8.16457C9.57504 9.60785 10.7184 10.7513 10.7184 12.1617C10.7184 13.5722 9.57504 14.7156 8.16457 14.7156Z" fill="#2463EA"/>
</svg>
