<svg width="17" height="16" viewBox="0 0 17 16" fill="none" xmlns="http://www.w3.org/2000/svg">
<path d="M9.52823 0.288251C8.67573 -0.0527893 7.7247 -0.0527893 6.8722 0.288251L0.991152 2.64292C0.707069 2.75653 0.463501 2.95259 0.291816 3.20584C0.12013 3.45909 0.028189 3.75793 0.0278321 4.06389V11.8746C0.0277809 12.181 0.119532 12.4802 0.291243 12.7339C0.462955 12.9876 0.706746 13.1839 0.991152 13.2977L6.8722 15.6503C7.7247 15.9913 8.67573 15.9913 9.52823 15.6503L15.4093 13.2977C15.6937 13.1839 15.9375 12.9876 16.1092 12.7339C16.2809 12.4802 16.3727 12.181 16.3726 11.8746V4.06389C16.3724 3.75776 16.2806 3.45869 16.1089 3.20524C15.9372 2.95179 15.6935 2.75557 15.4093 2.6419L9.52823 0.288251ZM7.25222 1.23829C7.8611 0.994729 8.54035 0.994729 9.14923 1.23829L14.4868 3.37333L12.1587 4.30293L5.87211 1.78993L7.25222 1.23829ZM4.4971 2.3385L10.7837 4.85253L8.20022 5.88736L1.91361 3.3723L4.4971 2.3385ZM8.71099 6.78223L15.3511 4.12621V11.8736C15.3512 11.9758 15.3208 12.0757 15.2636 12.1604C15.2064 12.2451 15.1251 12.3106 15.0303 12.3486L9.14923 14.7013C9.00622 14.7578 8.86014 14.8014 8.71099 14.832V6.78223ZM7.68944 6.78223V14.832C7.54009 14.8016 7.39377 14.7578 7.25222 14.7013L1.37015 12.3486C1.27546 12.3107 1.19431 12.2453 1.13714 12.1608C1.07997 12.0763 1.0494 11.9767 1.04938 11.8746V4.12723L7.68944 6.78223Z" fill="#2463EA"/>
</svg>
